<?xml version="1.0" encoding="utf-8"?>
<!-- Generator: Adobe Illustrator 19.1.0, SVG Export Plug-In . SVG Version: 6.00 Build 0)  -->
<svg version="1.1" id="Layer_1" xmlns="http://www.w3.org/2000/svg" xmlns:xlink="http://www.w3.org/1999/xlink" x="0px" y="0px"
	 viewBox="-86 326.3 626.3 140.7" style="enable-background:new -86 326.3 626.3 140.7;" xml:space="preserve">
<style type="text/css">
	.st0{fill:#FFFFFF;}
	.st1{fill:#F99300;}
</style>
<path class="st0" d="M21.8,432.3c0-6.9,2.9-12.3,8.8-16.2c5.8-3.9,13.9-5.8,24.2-5.8c4.4,0,8.6,0.3,12.7,0.8
	c-0.3-5.9-1.9-10.1-4.8-12.7c-2.9-2.6-7.7-3.8-14.4-3.8c-6.1,0-12.5,1.2-19.4,3.5v-10.9c6.6-2.5,13.7-3.8,21.1-3.8
	c9.7,0,17.3,2.5,22.6,7.6c5.3,5,8,12.3,8,21.7v20.2c0,1.5-0.2,3-0.4,4.5c-0.3,1.5-1,3.4-2.1,5.7c-1.1,2.3-2.6,4.4-4.6,6.1
	c-1.9,1.7-4.8,3.2-8.7,4.5c-3.8,1.3-8.3,1.9-13.3,1.9c-5.2,0-9.7-0.7-13.6-2s-6.8-2.8-8.8-4.6c-2-1.7-3.5-3.8-4.7-6.2
	c-1.2-2.4-1.9-4.3-2.2-5.9C22,435.3,21.8,433.8,21.8,432.3z M34.6,432.1c0,7.9,5.6,11.8,16.8,11.8c0,0,0.1,0,0.2,0
	c10.6,0,15.8-3.8,15.8-11.4v-11.3c-3.4-0.5-7.4-0.8-12.1-0.9c-1.9,0-3.8,0.2-5.9,0.5s-4.3,0.9-6.6,1.6c-2.4,0.7-4.3,1.9-5.9,3.6
	C35.4,427.8,34.6,429.8,34.6,432.1z"/>
<path class="st0" d="M91.1,454.4v-64c11.7-4.7,23-7,34.1-7v11.8c-7,0.1-14,1.1-21.3,2.9v56.3L91.1,454.4L91.1,454.4z"/>
<path class="st1" d="M122.5,454.4v-12.2h13.1v12.2H122.5z"/>
<path class="st0" d="M149,373.7v-13.5h13.6v13.5H149z M149.4,454.4v-69.9h12.8v69.9H149.4z"/>
<path class="st0" d="M177,454.4v-64c9.7-4.8,19.6-7.2,29.8-7.2c8.9,0,15.8,2.3,20.8,6.9s7.5,11,7.5,19.2v45.1H222v-46.1
	c0-4.1-1.1-7.4-3.2-9.7c-2.1-2.4-6.3-3.6-12.7-3.6c-5.7,0-11.2,0.8-16.5,2.5v56.8H177V454.4z"/>
<path class="st0" d="M243,395.7v-11.2h9.8v-3.4c0-17.4,7.8-26.1,23.3-26.1c2.6,0,5.1,0.3,7.6,1v11.1c-1.9-0.4-3.6-0.5-5.2-0.5
	c-2.1,0-3.8,0.1-4.9,0.3c-1.1,0.2-2.4,0.7-3.9,1.5s-2.5,2.3-3.1,4.4c-0.6,2.1-1,4.9-1,8.3v3.4h18.1v11.2h-18.1v58.7h-12.8v-58.7
	L243,395.7L243,395.7z"/>
<path class="st0" d="M289.2,437.5c-2-5-3-11-3-18.1s1-13.1,3-18.1s4.6-8.7,8-11.1c3.4-2.5,6.9-4.2,10.4-5.2s7.4-1.5,11.6-1.5
	s8.1,0.5,11.6,1.5s7,2.8,10.4,5.2c3.4,2.5,6.1,6.2,8,11.1c2,5,3,11,3,18.1s-1,13.1-3,18.1s-4.6,8.7-8,11.1
	c-3.4,2.5-6.9,4.2-10.4,5.2s-7.4,1.5-11.6,1.5s-8.1-0.5-11.6-1.5s-7-2.8-10.4-5.2C293.9,446.2,291.2,442.5,289.2,437.5z
	 M300.9,406.6c-1,3.4-1.5,7.7-1.5,12.9c0,5.2,0.5,9.5,1.5,12.9s2.6,5.9,4.6,7.5s4.1,2.7,6.2,3.3c2.1,0.5,4.6,0.8,7.6,0.8
	s5.5-0.3,7.6-0.8c2.1-0.5,4.2-1.6,6.2-3.3c2-1.6,3.6-4.1,4.6-7.5s1.5-7.7,1.5-12.9c0-5.2-0.5-9.5-1.5-12.9s-2.6-5.9-4.6-7.5
	s-4.1-2.7-6.2-3.3c-2.1-0.5-4.6-0.8-7.6-0.8s-5.5,0.3-7.6,0.8c-2.1,0.5-4.2,1.6-6.2,3.3C303.4,400.7,301.9,403.2,300.9,406.6z"/>
<path d="M-14.7,419.7c-0.9,0-1.7-0.1-2.6-0.3c-7-1.4-11.6-8.3-10.2-15.3c1-5.2,5.1-9.2,10.2-10.2L-1,346.4c0.2-0.6,0.8-1,1.3-1
	c0.1,0,0.3,0,0.4,0.1l3.3,1c0.7,0.2,1.1,1,1,1.7l-11.5,48.5c3.6,3,5.3,7.8,4.4,12.5C-3.1,415.3-8.5,419.7-14.7,419.7L-14.7,419.7z"
	/>
<path d="M-7.9,397.3l11.7-49.4l-3.3-1l-16.6,48.3c-4.8,0.6-8.9,4.2-9.9,9.2c-1.3,6.3,2.8,12.4,9.1,13.6c6.3,1.3,12.4-2.8,13.6-9.1
	C-2.4,404.4-4.4,399.9-7.9,397.3z"/>
<path class="st1" d="M-25.2,457.6c-16.7-1.2-27-7.9-33.9-18.1c-6-8.9-9.3-23.5-5.2-42.6c3.9-18,12.2-29.4,21.9-34.1
	c9.8-4.8,21.7-4.3,31.7-2.4c0.2,0,0.3,0.1,0.5,0.1l5.3-15.4c0.8-2.3,2.9-3.8,5.4-3.8c0.6,0,1.1,0.1,1.6,0.2l3.3,1
	c2.9,0.9,4.6,3.8,3.9,6.7l-3.9,16.4c4.7,2.4,9.1,5.5,12.8,9.5l24.2-37.9c-12-7.2-27.8-10.2-44.2-10.8c-6.5-0.3-22.6,1.2-28.5,2.3
	c-5.9,1.1-12,3.2-18.5,6.3c-6.4,3.2-12,7.3-16.7,12.3s-8.9,11.8-12.4,20.2c-3.6,8.5-6,18.3-7.2,29.5c-1.3,11.2-1,21,0.6,29.5
	c1.7,8.5,4.3,15.2,7.9,20.2s8.2,9.1,13.9,12.3c5.7,3.2,11.4,5.3,17,6.4c5.7,1.1,11.8,1.6,18.3,1.6c14.8,0,32.1-3.8,47-9.3l-1-3.8
	C2.2,459.4-13.8,458.4-25.2,457.6z"/>
<path class="st1" d="M-14.7,419.7c-0.9,0-1.7-0.1-2.6-0.3c-7-1.4-11.6-8.3-10.2-15.3c1-5.2,5.1-9.2,10.2-10.2L-1,346.4
	c0.2-0.6,0.8-1,1.3-1c0.1,0,0.3,0,0.4,0.1l3.3,1c0.7,0.2,1.1,1,1,1.7l-11.5,48.5c3.6,3,5.3,7.8,4.4,12.5
	C-3.1,415.3-8.5,419.7-14.7,419.7L-14.7,419.7z"/>
<g>
	<path class="st1" d="M379.6,383.3c-10.5,1.1-16.5-6.2-17.7-15.9c-1.4-11,3.8-19.6,13-21.1l0.4,2.8c-2.2,0.8-2.7,2.8-2.5,4.8
		l2.9,22.6c0.3,2,1.3,3.9,3.6,4.1L379.6,383.3z M377,345.9c1.8-0.2,5.7,1.2,6.9,1.1c0.7-0.1,1-0.4,1.2-1.1c0.2-0.7,0.5-1.1,1.2-1.2
		c1.5-0.2,1.7,1.3,1.7,1.5l1.4,11c0,0.2,0.2,1.7-1.3,1.9c-1,0.1-1.7-0.6-2-1.5c-1.3-3.8-4.2-8.4-8.8-9L377,345.9z M389.7,370.7
		c0.9-0.1,1.5,0.6,1.6,1.4c0.4,3.9-4.6,10.4-9.6,10.8l-0.4-2.8c3.6-1.3,6.3-4.1,6.9-7.8C388.5,371.6,388.7,370.9,389.7,370.7z"/>
	<path class="st1" d="M395.4,349.7c-0.2-1.8-0.2-2.1-1.9-2.4c-0.6-0.1-1.1-0.5-1.2-1.2c-0.2-1.4,1.4-1.7,1.6-1.7l12.6-1.6l3.9,30.3
		c0.2,1.8,0.2,2.1,1.9,2.4c0.6,0.1,1.1,0.5,1.2,1.2c0.2,1.4-1.4,1.7-1.6,1.7l-13.5,1.7c-0.2,0-1.8,0.1-2-1.3
		c-0.1-0.7,0.3-1.2,0.9-1.4c1.6-0.7,1.5-1,1.3-2.8L395.4,349.7z M408.6,342.6l0.2,0c3.1-0.4,6.3-0.9,9.4,0.1
		c3.4,1.2,5.3,3.6,5.9,7.2c0.8,5.5-2.5,8.3-7.2,10.1l0,0.1c4.3,0.1,8.5,0.8,9.3,5.8l0.5,4.2c0.1,0.4,0,1.4,0.7,1.3
		c0.8-0.1,0.7-1.5,1.9-1.6c0.6-0.1,1.5,0.5,1.6,1.2c0.2,1.4-1.2,3.3-2.1,4.3c-1.4,1.5-3.1,2.1-5.2,2.4c-2,0.3-4,0-5.6-1.3
		c-1.9-1.5-2.4-3.6-2.7-5.8l-0.4-3.2c-0.3-2.2-0.7-4.9-3.6-4.8l-0.4-2.8c2.5-0.6,2.7-2.2,2.4-4.5l-0.7-5.8c-0.3-2.4-1-3.5-3.5-4
		L408.6,342.6z"/>
	<path class="st1" d="M440.3,350.8l-2.4,16.9c-0.4,3,0.4,3.7,2.1,4.2c0.8,0.2,1.5,0.4,1.6,1.4c0.2,1.3-1.4,1.5-2.3,1.6l-5.5,0.7
		c-1,0.1-2.7,0.3-2.8-1.1c-0.1-1.1,0.7-1.2,1.7-1.9c0.9-0.7,2.1-1.9,2.6-5.4l3-21.6l0.1,0L440.3,350.8z M447.3,364.5l-7,0.9l0.3-2.8
		l5.8-0.7l-7.5-20.4l0.3-2.7l10.5-1.3l11,29.2c0.5,1.3,0.6,2.2,2,2.6c0.7,0.2,1.3,0.5,1.4,1.3c0.2,1.3-1.6,1.5-2.5,1.6l-11.9,1.5
		c-1,0.1-2.3,0.2-2.5-1c-0.1-0.8,0.2-1,0.7-1.4c1.1-0.9,1.3-1.2,0.6-3L447.3,364.5z"/>
	<path class="st1" d="M474.6,336.3c-1.7,0.9-3.1,2.4-2.9,4.3c0.3,2.3,1.8,3.6,7.7,5.1c8.8,2.2,11.3,6.4,11.9,10.8
		c0.9,7.4-4.6,13-11.6,14l-0.4-2.8c2.2-1,4-2.3,3.8-4.9c-0.3-3-4-3.8-6.4-4.5c-6.3-1.8-12.2-3.8-13.2-11.2
		c-0.9-7.2,3.7-12.4,10.7-13.5L474.6,336.3z M465.3,360.8c-0.1-1-0.1-2.4,1.2-2.5c1-0.1,1.7,0.6,2,1.3c1.2,3.7,4.4,8.1,8.7,8.4
		l0.4,2.8c-4.2,0.4-5.3-1.1-7-0.9c-1.5,0.2-1.2,1.7-2.4,1.9c-1.5,0.2-1.7-1.6-1.7-1.8L465.3,360.8z M488.1,342.2
		c0.1,1.1,0.1,2.3-1.3,2.5c-1.1,0.1-1.7-0.7-2-1.6c-1-3.5-4.4-6.7-8.2-7l-0.4-2.8c3-0.3,6.4,1.1,7,1c1.2-0.2,0.9-1.9,2.2-2
		c1.5-0.2,1.6,1.4,1.6,1.8L488.1,342.2z"/>
	<path class="st1" d="M511,360.3c0.2,1.8,0.2,2.1,1.9,2.4c0.6,0.1,1.1,0.5,1.2,1.2c0.2,1.4-1.4,1.7-1.6,1.7l-13.5,1.7
		c-0.2,0-1.8,0.1-2-1.3c-0.1-0.7,0.3-1.1,0.9-1.4c1.6-0.7,1.5-1,1.3-2.8l-3.2-25c-0.2-1.8-0.2-2.1-1.9-2.4c-0.6-0.1-1.1-0.5-1.2-1.2
		c-0.2-1.4,1.4-1.7,1.6-1.7l13.5-1.7c0.2,0,1.8-0.1,2,1.3c0.1,0.7-0.3,1.2-0.9,1.4c-1.6,0.7-1.5,1-1.3,2.8L511,360.3z M515.9,348.1
		l-4.2,0.5l-0.4-2.8l4.2-0.5l-1.4-10.8c-0.2-1.8-0.2-2.1-1.9-2.4c-0.6-0.1-1.1-0.5-1.2-1.2c-0.2-1.4,1.4-1.7,1.6-1.7l13.5-1.7
		c0.2,0,1.8-0.1,2,1.3c0.1,0.7-0.3,1.1-0.9,1.4c-1.6,0.7-1.5,1-1.3,2.8l3.2,25c0.2,1.8,0.2,2.1,1.9,2.4c0.6,0.1,1.1,0.5,1.2,1.2
		c0.2,1.4-1.4,1.7-1.6,1.7l-13.5,1.7c-0.2,0-1.8,0.1-2-1.3c-0.1-0.7,0.3-1.1,0.9-1.4c1.6-0.7,1.5-1,1.3-2.8L515.9,348.1z"/>
	<path class="st1" d="M373.6,389.5l8.6-1.1l0.4,3.5c-2.8,2.6-3.1,6.6-3.3,9.9c0,1.3-0.1,2.9-1.8,3.1c-1.8,0.2-2.2-1.2-2.2-1.5
		L373.6,389.5z M384.9,388l14.6-1.9l4.8,37.9c0.3,2.2,0.3,2.6,2.4,3c0.8,0.1,1.4,0.6,1.5,1.4c0.2,1.7-1.7,2.1-2,2.1l-16.8,2.2
		c-0.2,0-2.2,0.2-2.4-1.6c-0.1-0.8,0.4-1.4,1.1-1.8c2-0.9,1.9-1.3,1.6-3.5L384.9,388z M412.5,398.6c0,0.2,0,1.7-1.7,2
		c-1.7,0.2-2.2-1.3-2.5-2.6c-0.9-3.1-2.3-6.9-5.6-8.7l-0.4-3.5l8.6-1.1L412.5,398.6z"/>
	<path class="st1" d="M415.3,384.1l15.7-2l5.7,44.5l-15.7,2c-0.2,0-2.2,0.2-2.4-1.6c-0.1-0.8,0.4-1.4,1.1-1.8c2-0.9,1.9-1.3,1.6-3.5
		l-4-31.2c-0.3-2.2-0.3-2.6-2.4-3c-0.8-0.1-1.4-0.6-1.5-1.4C413.1,384.5,415.1,384.2,415.3,384.1z M433.7,381.8l13.3-1.7l1.5,12.1
		c0,0.3,0.1,1.4-1.7,1.7c-1,0.1-1.4-0.4-1.8-1.3c-2.2-4.6-5.6-7.2-10.9-7.3L433.7,381.8z M436.2,401.7c2.4-1,3.2-3.4,3.5-5.8
		c0.2-1.1,0.4-2,1.7-2.2c1.8-0.2,1.8,1.9,1.9,2.4l1.6,12.9c0.1,0.5,0.6,2.6-1.2,2.8c-1.2,0.2-1.7-0.7-2.2-1.7
		c-0.8-2.2-2.3-4.4-4.8-4.7L436.2,401.7z M438.9,422.9c4.7-1.2,8-5,9-9.9c0.3-0.9,0.5-1.9,1.6-2.1c1.9-0.2,2,1.6,2,1.8l1.5,11.9
		l-13.7,1.7L438.9,422.9z"/>
	<path class="st1" d="M468.1,380c-2.2,1.1-3.9,3-3.6,5.4c0.4,2.9,2.2,4.5,9.6,6.3c11.1,2.7,14.1,8,14.8,13.5
		c1.2,9.2-5.7,16.2-14.5,17.5l-0.4-3.5c2.7-1.3,5-2.9,4.7-6.2c-0.4-3.8-5-4.8-8-5.6c-7.9-2.2-15.3-4.7-16.5-14
		c-1.2-9,4.7-15.5,13.4-16.9L468.1,380z M456.5,410.6c-0.2-1.2-0.1-2.9,1.5-3.2c1.2-0.2,2.1,0.7,2.5,1.7c1.4,4.7,5.5,10.1,10.9,10.5
		l0.4,3.5c-5.2,0.5-6.6-1.4-8.7-1.1c-1.9,0.2-1.5,2.2-3,2.4c-1.8,0.2-2.1-2-2.2-2.3L456.5,410.6z M485.1,387.4
		c0.2,1.4,0.1,2.9-1.6,3.1c-1.4,0.2-2.1-0.9-2.4-2c-1.2-4.3-5.5-8.4-10.3-8.8l-0.4-3.5c3.8-0.4,8,1.3,8.7,1.3
		c1.5-0.2,1.2-2.3,2.7-2.5c1.8-0.2,2,1.8,2,2.3L485.1,387.4z"/>
	<path class="st1" d="M488.9,374.7l8.6-1.1l0.4,3.5c-2.8,2.6-3.1,6.6-3.3,9.9c0,1.3-0.1,2.9-1.8,3.1c-1.8,0.2-2.2-1.2-2.2-1.5
		L488.9,374.7z M500.2,373.3l14.6-1.9l4.8,37.9c0.3,2.2,0.3,2.6,2.4,3c0.8,0.1,1.4,0.6,1.5,1.4c0.2,1.7-1.7,2.1-2,2.1l-16.8,2.2
		c-0.2,0-2.2,0.2-2.4-1.6c-0.1-0.8,0.4-1.4,1.1-1.8c2-0.9,1.9-1.3,1.6-3.5L500.2,373.3z M527.8,383.9c0,0.2,0,1.7-1.7,2
		c-1.7,0.2-2.2-1.3-2.5-2.6c-0.9-3.1-2.3-6.9-5.6-8.7l-0.4-3.5l8.6-1.1L527.8,383.9z"/>
	<path class="st1" d="M391.1,464.7l-5.1,0.7l-9.8-22.1c-0.4-1-0.3-1.1-1.3-1.4c-0.5-0.2-0.8-0.4-0.8-0.9c-0.2-1.2,1.4-1.3,2.2-1.4
		l7.8-1c0.8-0.1,2.5-0.5,2.7,0.7c0.2,1.4-1.5,1-1.3,2.4c0.1,0.4,0.1,0.6,0.3,1l6.4,14.9L391.1,464.7z M391,451.3l1.1-8.2
		c0.1-0.6,0.1-0.8,0.1-1.4c-0.1-1-0.6-1.6-1.6-1.8c-0.6-0.1-1.2-0.3-1.3-1c-0.1-1.1,1.1-1.3,1.9-1.4l3.9-0.5
		c0.8-0.1,2.1-0.4,2.2,0.7c0.1,0.8-0.4,1-1,1.3c-0.9,0.5-1.2,0.8-1.6,1.7c-0.4,0.8-0.5,1.7-0.7,2.5l-1.6,11.5l-0.1,0L391,451.3z"/>
	<path class="st1" d="M399.4,436.5l9.4-1.2l3.4,26.7l-9.4,1.2c-0.1,0-1.3,0.1-1.5-0.9c-0.1-0.5,0.2-0.9,0.7-1.1
		c1.2-0.6,1.1-0.8,1-2.1l-2.4-18.7c-0.2-1.3-0.2-1.5-1.5-1.8c-0.5-0.1-0.8-0.4-0.9-0.9C398.1,436.8,399.3,436.6,399.4,436.5z
		 M410.4,435.1l8-1l0.9,7.2c0,0.2,0.1,0.9-1,1c-0.6,0.1-0.8-0.3-1.1-0.8c-1.3-2.8-3.3-4.3-6.5-4.4L410.4,435.1z M412,447.1
		c1.4-0.6,2-2.1,2.1-3.5c0.1-0.6,0.2-1.2,1-1.3c1.1-0.1,1.1,1.2,1.1,1.5l1,7.7c0,0.3,0.4,1.5-0.7,1.7c-0.8,0.1-1-0.4-1.3-1
		c-0.5-1.3-1.4-2.6-2.9-2.8L412,447.1z M413.6,459.8c2.8-0.7,4.8-3,5.4-6c0.2-0.6,0.3-1.2,1-1.2c1.1-0.1,1.2,0.9,1.2,1.1l0.9,7.1
		l-8.2,1L413.6,459.8z"/>
	<path class="st1" d="M424.6,437.4c-0.2-1.3-0.2-1.5-1.5-1.8c-0.5-0.1-0.8-0.4-0.9-0.9c-0.1-1,1-1.3,1.2-1.3l9.4-1.2l2.9,22.7
		c0.2,1.3,0.2,1.5,1.5,1.8c0.5,0.1,0.8,0.4,0.9,0.9c0.1,1-1,1.3-1.2,1.3l-10.1,1.3c-0.1,0-1.3,0.1-1.5-0.9c-0.1-0.5,0.2-0.9,0.7-1.1
		c1.2-0.6,1.1-0.8,1-2.1L424.6,437.4z M434.4,432.1l0.2,0c2.3-0.3,4.7-0.7,7,0.1c2.5,0.9,4,2.7,4.4,5.4c0.6,4.1-1.9,6.2-5.4,7.6
		l0,0.1c3.2,0.1,6.4,0.6,6.9,4.4l0.4,3.1c0,0.3,0,1,0.5,1c0.6-0.1,0.5-1.1,1.4-1.2c0.5-0.1,1.1,0.4,1.2,0.9c0.1,1-0.9,2.5-1.6,3.2
		c-1.1,1.2-2.3,1.6-3.9,1.8s-3,0-4.2-1c-1.4-1.1-1.8-2.7-2-4.4l-0.3-2.4c-0.2-1.6-0.5-3.6-2.7-3.6l-0.3-2.1c1.9-0.4,2-1.6,1.8-3.4
		l-0.6-4.3c-0.2-1.8-0.7-2.6-2.6-3L434.4,432.1z"/>
	<path class="st1" d="M459.1,430.5c-1.3,0.6-2.3,1.8-2.2,3.3c0.2,1.7,1.3,2.7,5.8,3.8c6.6,1.6,8.5,4.8,8.9,8.1
		c0.7,5.5-3.4,9.7-8.7,10.5l-0.3-2.1c1.6-0.8,3-1.7,2.8-3.7c-0.2-2.3-3-2.8-4.8-3.4c-4.7-1.3-9.2-2.8-9.9-8.4
		c-0.7-5.4,2.8-9.3,8-10.1L459.1,430.5z M452.1,448.8c-0.1-0.8-0.1-1.8,0.9-1.9c0.7-0.1,1.3,0.4,1.5,1c0.9,2.8,3.3,6.1,6.5,6.3
		l0.3,2.1c-3.1,0.3-4-0.8-5.2-0.7c-1.1,0.1-0.9,1.3-1.8,1.4c-1.1,0.1-1.3-1.2-1.3-1.4L452.1,448.8z M469.3,434.9
		c0.1,0.8,0.1,1.7-1,1.9c-0.9,0.1-1.3-0.5-1.5-1.2c-0.7-2.6-3.3-5-6.2-5.3l-0.3-2.1c2.3-0.3,4.8,0.8,5.2,0.8
		c0.9-0.1,0.7-1.4,1.6-1.5c1.1-0.1,1.2,1.1,1.2,1.4L469.3,434.9z"/>
	<path class="st1" d="M486,448.6c0.2,1.3,0.2,1.5,1.5,1.8c0.5,0.1,0.8,0.4,0.9,0.9c0.1,1-1,1.3-1.2,1.3l-10.1,1.3
		c-0.1,0-1.3,0.1-1.5-0.9c-0.1-0.5,0.2-0.9,0.7-1.1c1.2-0.6,1.1-0.8,1-2.1l-2.4-18.7c-0.2-1.3-0.2-1.5-1.5-1.8
		c-0.5-0.1-0.8-0.4-0.9-0.9c-0.1-1,1-1.3,1.2-1.3l10.1-1.3c0.1,0,1.3-0.1,1.5,0.9c0.1,0.5-0.2,0.9-0.7,1.1c-1.2,0.6-1.1,0.8-1,2.1
		L486,448.6z"/>
	<path class="st1" d="M498.8,425.4c-1.6,0.8-1.6,1.9-1.5,2.8l2.4,18.5c0.1,0.9,0.4,1.9,2.1,2.3l0.3,2.1c-7.7,0.3-12-5.4-12.9-12.5
		s1.8-13.7,9.3-15.3L498.8,425.4z M503.5,448.8c1.6-0.8,1.6-1.9,1.5-2.8l-2.4-18.5c-0.1-0.9-0.4-1.9-2.2-2.3l-0.3-2.1
		c7.7-0.3,12,5.4,12.9,12.5s-1.8,13.7-9.3,15.3L503.5,448.8z"/>
	<path class="st1" d="M537.2,437.3l1.1,8.6l-5.3,0.7L517,425.8c-0.7-0.9-0.9-1.4-2.2-1.7c-0.6-0.1-1.1-0.2-1.2-1
		c-0.1-1.1,0.9-1.2,1.7-1.3l9.2-1.2L537.2,437.3z M517.1,428.3L517.1,428.3l2.5,3.3l1.4,10.8c1.1,4.4,3.2,2.7,3.4,4.2
		c0.1,1.1-1.3,1.2-1.7,1.3l-4.1,0.5c-0.4,0-1.8,0.3-2-0.8c-0.2-1.5,2.3-0.4,2.3-5L517.1,428.3z M533.6,426c-0.7-5.1-3.4-3.4-3.6-5
		c-0.1-1,1-1.2,1.4-1.3l4.9-0.6c0.4,0,1.5-0.1,1.7,0.9c0.2,1.6-2.9,0.7-2.2,5.8l1.1,8.7l-0.1,0l-2.5-3.4L533.6,426z"/>
</g>
</svg>
